<?xml version="1.0" encoding="UTF-8"?>
<svg id="Layer_1" xmlns="http://www.w3.org/2000/svg" version="1.1" viewBox="0 0 496 489">
  <!-- Generator: Adobe Illustrator 29.5.1, SVG Export Plug-In . SVG Version: 2.1.0 Build 141)  -->
  <defs>
    <style>
      .st0 {
        fill: #f2edf8;
      }
    </style>
  </defs>
  <path class="st0" d="M166.6,391.2c0,2-2.2,3.6-5.2,3.6-3.3.3-5.6-1.3-5.6-3.6s2.2-3.6,5.2-3.6c3.1-.3,5.6,1.3,5.6,3.6ZM135.7,386.6c-.7,2,1.3,4.3,4.3,4.8,2.5,1,5.6,0,6.2-2s-1.3-4.3-4.3-5.2c-2.5-.7-5.5.3-6.2,2.2h0v.2ZM179.7,385c-3,.7-4.8,2.5-4.6,4.8.3,2,3,3.3,5.8,2.5,3-.7,4.8-2.5,4.6-4.6-.3-1.9-3.1-3.2-5.8-3h0v.2h0ZM245,4.1C107.3,4.1,1.7,108.8,1.7,246.7s69.3,204.6,168.5,237.8c12.7,2.2,17.1-5.6,17.1-12s-.3-40.1-.3-61.1c0,0-69.5,14.9-84.1-29.6,0,0-11.3-28.9-27.7-36.5,0,0-22.7-15.6,1.5-15.4,0,0,24.7,2,38.3,25.7,21.7,38.3,58.2,27.4,72.5,20.8,2.2-15.9,8.8-26.9,15.9-33.5-55.6-6.2-111.6-14.3-111.6-109.8s7.5-41,23.4-58.4c-2.5-6.5-11-33.1,2.5-67.4,20.8-6.5,68.5,26.9,68.5,26.9,19.9-5.6,41.2-8.5,62.4-8.5s42.6,3,62.4,8.5c0,0,47.9-33.4,68.5-26.9,13.6,34.5,5.2,61.1,2.5,67.4,15.9,17.6,25.7,31.3,25.7,58.4,0,95.9-58.4,103.6-114,109.8,9.2,7.8,16.9,22.7,16.9,46.1,0,33.5-.3,74.9-.3,83.2s4.6,14.4,17.1,12c99.4-33.1,166.9-127.3,166.9-237.6S382.9,4.1,245,4.1ZM98.3,347c-1.3,1-1,3.3.7,5.2,1.5,1.5,4,2.2,5.2,1,1.3-1,1-3.3-.7-5.2-1.5-1.5-4-2.2-5.2-1ZM87.5,339c-.7,1.3.3,3,2.2,4,1.5,1,3.6.7,4.3-.7.7-1.3-.3-3-2.2-4-2-.6-3.6-.3-4.3.7ZM119.8,374.3c-1.5,1.3-1,4.3,1.3,6.2,2.2,2.2,5.2,2.5,6.5,1,1.3-1.3.7-4.3-1.3-6.2-2.2-2.2-5.2-2.5-6.5-1ZM108.5,359.7c-1.5,1-1.5,3.6,0,5.8s4.3,3.3,5.6,2.2c1.5-1.3,1.5-4,0-6.2-1.3-2.2-4-3.3-5.6-2h0v.2Z"/>
</svg>