<?xml version="1.0" encoding="UTF-8"?>
<svg id="Layer_1" xmlns="http://www.w3.org/2000/svg" version="1.1" viewBox="0 0 141.2 161">
  <!-- Generator: Adobe Illustrator 29.5.1, SVG Export Plug-In . SVG Version: 2.1.0 Build 141)  -->
  <defs>
    <style>
      .st0 {
        fill: #faf6ff;
      }

      .st0, .st1 {
        stroke: #57309b;
        stroke-width: 5px;
      }

      .st2 {
        fill: #57309b;
      }

      .st1 {
        fill: none;
        stroke-linecap: round;
        stroke-linejoin: round;
      }
    </style>
  </defs>
  <path class="st0" d="M2.6,120v-63c0-20.7,16.8-37.5,37.5-37.5h0c20.7,0,37.5,16.8,37.5,37.5v63c0,20.7-16.8,37.5-37.5,37.5h0c-20.7,0-37.5-16.8-37.5-37.5Z"/>
  <path class="st0" d="M7.5,113.4V39.4C7.5,21.6,21.9,7.1,39.7,7.1h0c17.8,0,32.2,14.4,32.2,32.2v74c0,17.8-14.4,32.2-32.2,32.2h0c-17.8,0-32.2-14.4-32.2-32.2h0Z"/>
  <path class="st0" d="M47.4,148.3l-28.9-36.4c-5.3-6.7-4-16.2,2.9-21.2h0c6.9-5,16.9-3.6,22.2,3.1l28.9,36.4c5.3,6.7,4,16.2-2.9,21.2h0c-6.9,5-16.9,3.6-22.2-3.1h0Z"/>
  <path class="st1" d="M60.5,140c0-3.2-4.6-8.5-9.7-8.5"/>
  <path class="st0" d="M2.5,96v-56C2.5,19.3,19.3,2.5,40,2.5h0c20.7,0,37.5,16.8,37.5,37.5v56c0,20.7-16.8,37.5-37.5,37.5h0c-20.7,0-37.5-16.8-37.5-37.5Z"/>
  <circle class="st2" cx="26.3" cy="94.7" r="6.2"/>
  <circle class="st2" cx="53.8" cy="94.7" r="6.2"/>
  <path class="st1" d="M77.2,55c-3.4-3.6-12.1-10.2-19.7-7M77.2,39.8c-3.4-3.6-12.1-10.2-19.8-7M77.2,70.5c-3.4-3.6-12.1-10.2-19.7-7"/>
  <path class="st2" d="M139,57c0-3-4.6-2.6-4.7.4-.1,3.1-.3,6.1-.5,9.2-2.6-1.2-5.9-.2-7.4,2.5-1.9,3.4-1.7,9.4.8,12.4.7.8,1.4,1.4,2.2,1.7,0,.5,0,1.1,0,1.9,0,3.8-.1,10.7-.7,18.1-.3,3.7-.7,7.4-1.3,11-.6,3.5-1.4,6.8-2.3,9.5-1.3,3.6-2.7,6.9-4.4,9.9-1.3,2.2-2.7,4.3-4.4,6.1-2.5,2.7-5.5,4.9-9.2,6.5-3.8,1.6-8.3,2.5-14,2.6-1.3,0-2.4,1.1-2.4,2.5,0,1.3,1.1,2.4,2.5,2.4,5.5,0,10.2-.9,14.3-2.4,3.1-1.1,5.8-2.6,8.1-4.4,3.5-2.7,6.3-6,8.6-9.7,2.3-3.7,4-7.7,5.5-11.9,1.1-3.1,1.9-6.6,2.5-10.4.9-5.6,1.5-11.6,1.8-16.9.3-5.3.4-10,.4-13,0-1,0-1.9,0-2.4,1-.6,1.8-1.6,2.4-2.8.8-1.7,1.2-3.6,1.1-5.5.7-5.8,1.1-11.6,1.3-17.5Z"/>
</svg>