<?xml version="1.0" encoding="UTF-8"?>
<svg id="Layer_2" xmlns="http://www.w3.org/2000/svg" xmlns:xlink="http://www.w3.org/1999/xlink" version="1.1" viewBox="0 0 365.1 480">
  <!-- Generator: Adobe Illustrator 29.5.1, SVG Export Plug-In . SVG Version: 2.1.0 Build 141)  -->
  <defs>
    <style>
      .st0, .st1 {
        fill: none;
      }

      .st2 {
        fill: #ff6708;
      }

      .st2, .st3, .st4, .st1 {
        stroke: #57309b;
        stroke-width: 10px;
      }

      .st3, .st5 {
        fill: #fff;
      }

      .st4 {
        fill: #73ffd3;
      }

      .st6 {
        clip-path: url(#clippath);
      }

      .st7 {
        fill: #57309b;
      }

      .st1 {
        stroke-linecap: round;
        stroke-linejoin: round;
      }
    </style>
    <clipPath id="clippath">
      <rect class="st0" width="240" height="480"/>
    </clipPath>
  </defs>
  <g id="Layer_1-2">
    <path class="st7" d="M257.7,434c-8.2,0-14.9-6.6-15-14.8-.1-8.3,6.5-15.1,14.8-15.2,9.9-.1,18.1-1.6,25.1-4.6,6-2.5,11-6.1,15.5-11,2.8-3.1,5.3-6.6,7.7-10.8,2.9-5.1,5.6-11.3,8.3-18.8,1.7-4.7,3.1-10.8,4.4-18,1.1-6.4,2-13.7,2.6-21.8,1-12.4,1.4-24.3,1.4-32.1-.5-.3-1-.6-1.4-.9l-21.1-11.5c-7.3-4-9.9-13.1-6-20.4.9-1.7,2.1-3.1,3.5-4.3v-.2c-3.9-7.3-1.1-16.4,6.2-20.2.7-.4,1.3-.6,2-.9.2-2,.8-3.9,1.7-5.7,1.9-3.5,5-6.1,8.9-7.3,1.4-.4,2.9-.7,4.4-.7,4.6,0,8.8,2,11.5,5.4.5-.1.9-.2,1.4-.2.6,0,1.2-.1,1.9-.1,7.5,0,13.9,5.6,14.9,13.1v1.1c1.9,0,3.6.4,5.3,1.1,7.6,3.1,11.3,11.9,8.2,19.6l-9.1,22.2c-.5,1.1-1.1,2.2-1.8,3.2-.2.2-.3.5-.5.7v1.6c0,6.3-.1,16.1-.8,27.2-.8,13.5-2,25.6-3.8,35.9-1.5,9-3.4,16.5-5.7,23-3.8,10.6-7.6,19-12.2,26.4-5.7,9.4-12.3,16.8-20.2,22.7-5.8,4.4-12.3,7.9-19.3,10.5-9.6,3.5-20.7,5.4-32.8,5.6h-.2,0Z"/>
    <g class="st6">
      <g>
        <path class="st3" d="M7.8,163.6v203.9c0,58,47,105,105,105h14.7c58,0,105-47,105-105v-203.9c0-58-47-105-105-105h-14.7c-58,0-105,47-105,105Z"/>
        <path class="st4" d="M22.5,118.1v222c0,53.4,43.3,96.7,96.7,96.7h0c53.4,0,96.7-43.3,96.7-96.7V118.1c0-53.4-43.3-96.7-96.7-96.7h0c-53.4,0-96.7,43.3-96.7,96.7Z"/>
        <path class="st2" d="M56.7,335.1l86.7,109.2c16,20.1,45.8,24.2,66.7,9.2h0c20.8-15,24.8-43.5,8.8-63.6l-86.8-109.2c-16-20.1-45.8-24.2-66.7-9.2h0c-20.8,15-24.8,43.5-8.8,63.6h0Z"/>
        <path class="st1" d="M182.8,419.5c-.4-9.6-13.7-25.6-29.1-25.5"/>
        <path class="st3" d="M7.5,119.9v168.1c0,62.1,50.3,112.4,112.4,112.4s112.4-50.3,112.4-112.4V119.9c0-62.1-50.3-112.4-112.4-112.4S7.5,57.8,7.5,119.9Z"/>
        <path class="st7" d="M97.5,284.2c0-10.4-8.4-18.8-18.8-18.8s-18.8,8.4-18.8,18.8,8.4,18.8,18.8,18.8,18.8-8.4,18.8-18.8ZM180,284.2c0-10.4-8.4-18.8-18.8-18.8s-18.8,8.4-18.8,18.8,8.4,18.8,18.8,18.8,18.8-8.4,18.8-18.8Z"/>
        <path class="st1" d="M231.7,165c-10.2-10.9-36.3-30.5-59.2-21M231.7,119.5c-10.2-10.9-36.3-30.5-59.2-21M231.7,211.5c-10.2-10.9-36.3-30.5-59.2-21"/>
      </g>
    </g>
    <path class="st5" d="M352,244.6c-2.6-1-5.5.2-6.5,2.7l-2.5,6.1-2.4-19.1c-.3-2.7-2.8-4.7-5.6-4.3s-4.7,2.8-4.3,5.6l1.9,15.3h0l-6.9-22.4c-.8-2.6-3.6-4.1-6.2-3.3s-4.1,3.6-3.3,6.2l6.9,22.4c-.2.1-.3.3-.5.4l-7.2-13.8c-1.3-2.5-4.3-3.4-6.8-2.1s-3.4,4.3-2.1,6.8l7.5,14.2-4.2-2.3c-2.4-1.3-5.5-.4-6.8,2-1.3,2.4-.4,5.5,2,6.8l21.6,11.8h0c1.8,1.4,3.9,2.2,6.1,2.5v2.6c0,7.9-.2,22.1-1.5,37.2-.6,7.5-1.5,15.3-2.8,22.6-1.2,7.3-2.8,14.1-4.8,19.6-2.6,7.3-5.5,14.2-9,20.4-2.6,4.6-5.6,8.9-9,12.6-5.1,5.6-11.2,10.2-19,13.5-7.7,3.3-17.1,5.2-28.9,5.4-2.8,0-5,2.3-4.9,5.1,0,2.8,2.3,5,5.1,4.9,11.3-.2,21.1-1.9,29.5-5,6.3-2.3,11.9-5.4,16.7-9,7.3-5.5,13-12.4,17.7-19.9,4.6-7.6,8.2-15.9,11.3-24.5,2.2-6.4,3.9-13.6,5.2-21.3,2-11.5,3-23.8,3.6-34.8.6-11,.7-20.6.7-26.7s0-4.2,0-5.3c.9-.8,1.6-1.7,2.3-2.7.3-.4.6-.8.8-1.3l9.1-22.2c1-2.6-.2-5.5-2.7-6.5h0Z"/>
    <ellipse class="st5" cx="173.2" cy="277.1" rx="8.5" ry="8.3"/>
    <ellipse class="st5" cx="89.9" cy="277.1" rx="8.5" ry="8.3"/>
  </g>
</svg>