<?xml version="1.0" encoding="UTF-8"?>
<svg id="Layer_1" xmlns="http://www.w3.org/2000/svg" version="1.1" viewBox="0 0 144 144">
  <!-- Generator: Adobe Illustrator 29.5.1, SVG Export Plug-In . SVG Version: 2.1.0 Build 141)  -->
  <defs>
    <style>
      .st0 {
        fill: #f2edf8;
      }
    </style>
  </defs>
  <g id="Layer_1-2">
    <path class="st0" d="M131.2,2.5H12.7c-5.6,0-10.1,4.4-10.2,10v119c0,5.6,4.6,10.1,10.2,10h118.5c5.6,0,10.2-4.4,10.3-10V12.5c0-5.6-4.7-10.1-10.3-10ZM43.7,121h-20.6V54.6h20.7v66.3h0ZM33.4,45.5c-6.6,0-12-5.4-11.9-12s5.4-12,12-11.9c6.6,0,11.9,5.4,12,12,0,6.6-5.4,11.9-12.1,11.9h0ZM121,121h-20.6v-32.2c0-7.7,0-17.6-10.7-17.6s-12.4,8.4-12.4,17v32.8h-20.7V54.6h19.8v9.1h.3c2.7-5.2,9.5-10.7,19.5-10.7,20.9,0,24.7,13.7,24.7,31.6,0,0,0,36.4,0,36.4Z"/>
  </g>
</svg>